<?xml version="1.0" encoding="UTF-8"?>
<svg xmlns="http://www.w3.org/2000/svg" width="1280" height="800" viewBox="0 0 1280 800">
  <defs>
    <linearGradient id="bg" x1="0" x2="1" y1="0" y2="1">
      <stop stop-color="#fff8ef" />
      <stop offset="1" stop-color="#eadccb" />
    </linearGradient>
    <filter id="shadow" x="-20%" y="-20%" width="140%" height="140%">
      <feDropShadow dx="0" dy="24" stdDeviation="28" flood-color="#1d1a17" flood-opacity=".22" />
    </filter>
    <linearGradient id="logoBg" x1="0" x2="1" y1="0" y2="1">
      <stop offset="0" stop-color="#7a4a1f" />
      <stop offset="1" stop-color="#1d1a17" />
    </linearGradient>
  </defs>
  <rect width="1280" height="800" fill="url(#bg)" />
  <circle cx="1076" cy="128" r="260" fill="#dbcdbb" opacity=".45" />
  <circle cx="162" cy="692" r="240" fill="#b26d23" opacity=".12" />

  <g transform="translate(88 86)">
    <rect width="88" height="88" rx="20" fill="url(#logoBg)" />
    <rect x="15" y="13" width="58" height="63" rx="5" fill="#fffaf3" />
    <path d="M22 22h44v3H22z" fill="#c27a2c" />
    <path d="M25 31h38v27H25z" fill="#eadccb" />
    <path d="M29 36h31v3H29zm0 7h25v3H29zm0 7h28v3H29z" fill="#8a5a24" opacity=".45" />
    <path d="M25 65h9V52h5v13h9V52h5v13h12v5H25v-5zm0-37h6v13l12-13h7L38 42l13 16h-8L32 45l-1 2v11h-6V28z" fill="#1d1a17" />
  </g>

  <text x="88" y="230" fill="#8a5a24" font-family="Helvetica" font-size="26" font-weight="800" letter-spacing="4">KINDLE-READY FLOW</text>
  <text x="88" y="320" fill="#1d1a17" font-family="Helvetica" font-size="68" font-weight="900">
    <tspan x="88" y="320">Generate an EPUB and</tspan><tspan x="88" y="398">send it from the</tspan><tspan x="88" y="476">extension</tspan>
  </text>
  <text x="88" y="510" fill="#5d5349" font-family="Helvetica" font-size="32" font-weight="500">
    <tspan x="88" y="510">The popup calls KindleFlow to import,</tspan><tspan x="88" y="554">generate, download, and optionally send the</tspan><tspan x="88" y="598">EPUB to your Kindle address.</tspan>
  </text>
  <rect x="88" y="632" width="600" height="72" rx="36" fill="#1d1a17" />
  <text x="124" y="678" fill="#fff8ef" font-family="Helvetica" font-size="26" font-weight="800">Works best when you are already signed in to KindleFlow in the same browser.</text>

  <g filter="url(#shadow)" transform="translate(800 110)">
    <rect width="360" height="520" rx="36" fill="#f6f0e8" />
    <text x="34" y="68" fill="#8a5a24" font-family="Helvetica" font-size="17" font-weight="900" letter-spacing="3">KINDLEFLOW</text>
    <text x="34" y="124" fill="#1d1a17" font-family="Helvetica" font-size="38" font-weight="900">Send article</text>
    <text x="34" y="184" fill="#1d1a17" font-family="Helvetica" font-size="18" font-weight="800">Generated file</text>
    <rect x="34" y="204" width="292" height="54" rx="16" fill="#fffaf3" stroke="#dbcdbb" />
    <text x="52" y="238" fill="#6f6257" font-family="Helvetica" font-size="15">deep-dive-paid-substack.epub</text>
    <rect x="34" y="288" width="292" height="58" rx="29" fill="#1d1a17" />
    <text x="100" y="325" fill="#fffaf3" font-family="Helvetica" font-size="18" font-weight="800">Send current page</text>
    <rect x="34" y="380" width="292" height="74" rx="18" fill="#eadccb" />
    <text x="58" y="424" fill="#1d1a17" font-family="Helvetica" font-size="17" font-weight="800">Download EPUB</text>
  </g>
</svg>
